<svg height="512" viewBox="0 0 60 60" width="512" xmlns="http://www.w3.org/2000/svg"><g id="Page-1" fill="none" fill-rule="evenodd"><g id="053---browser-alert" fill-rule="nonzero"><g id="color_copy" transform="translate(1 1)"><path id="Shape" d="m48 4c.00033.22468945-.0197526.44894435-.06.67l-3.94-.67c-1.3420643-.00458676-2.6748881.22206094-3.94.67-.0402474-.22105565-.06033-.44531055-.06-.67 0-2.209139 1.790861-4 4-4s4 1.790861 4 4z" fill="#e8edfc"/><path id="Shape" d="m54 34v20c0 2.209139-1.790861 4-4 4h-46c-2.209139 0-4-1.790861-4-4v-34h32v9c-1.1032019.0032948-1.9967052.8967981-2 2v2c0 .5522847.4477153 1 1 1z" fill="#cad9fc"/><path id="Shape" d="m27 31v2c0 .5522847.4477153 1 1 1h3c-.5522847 0-1-.4477153-1-1v-2c.0032948-1.1032019.8967981-1.9967052 2-2v-9h-3v9c-1.1032019.0032948-1.9967052.8967981-2 2z" fill="#a4c2f7"/><path id="Shape" d="m51 34v20c0 2.209139-1.790861 4-4 4h3c2.209139 0 4-1.790861 4-4v-20z" fill="#a4c2f7"/><path id="Shape" d="m32.69 12c-.4593213 1.2834682-.6927745 2.6368202-.69 4v4h-32v-4c0-2.209139 1.790861-4 4-4z" fill="#e8edfc"/><path id="Shape" d="m29.69 12c-.4593213 1.2834682-.6927745 2.6368202-.69 4l-.0000244 4h3.0000244v-4c-.0027745-1.3631798.2306787-2.7165318.69-4z" fill="#cad9fc"/><g fill="#e8edfc"><circle id="Oval" cx="4" cy="16" r="1"/><circle id="Oval" cx="8" cy="16" r="1"/><circle id="Oval" cx="12" cy="16" r="1"/><path id="Shape" d="m56 16 .0000265 13h-24.0000509l.0000244-13c-.0027745-1.3631798.2306787-2.7165318.69-4 1.2144222-3.43679757 3.9266443-6.13429928 7.37-7.33 1.2651119-.44793906 2.5979357-.67458676 3.94-.67l3.94.67c1.7139136.58621531 3.2705028 1.55780068 4.55 2.84 2.2534177 2.24999143 3.5166967 5.305615 3.51 8.49z"/></g><path id="Shape" d="m44 4c-.5016016.00186626-1.0025897.03526546-1.5.1 5.9991105.75312841 10.4997035 5.85380041 10.5 11.9v13h3v-13c0-6.627417-5.372583-12-12-12z" fill="#cad9fc"/><path id="Shape" d="m36 17c-.5522847 0-1-.4477153-1-1 .0055111-4.9682782 4.0317218-8.99448887 9-9 .5522847 0 1 .44771525 1 1s-.4477153 1-1 1c-3.8641657.00440864-6.9955914 3.1358343-7 7 0 .5522847-.4477153 1-1 1z" fill="#428dff"/><path id="Shape" d="m58 31v2c0 .5522847-.4477153 1-1 1h-26c-.5522847 0-1-.4477153-1-1v-2c.0032948-1.1032019.8967981-1.9967052 2-2h24c1.1032019.0032948 1.9967052.8967981 2 2z" fill="#e8edfc"/><path id="Shape" d="m56 29h-3c1.1045695 0 2 .8954305 2 2v2c0 .5522847-.4477153 1-1 1h3c.5522847 0 1-.4477153 1-1v-2c0-1.1045695-.8954305-2-2-2z" fill="#cad9fc"/><path id="Shape" d="m36 24c-.5522847 0-1-.4477153-1-1v-3c0-.5522847.4477153-1 1-1s1 .4477153 1 1v3c0 .5522847-.4477153 1-1 1z" fill="#428dff"/><path id="Shape" d="m39 34c0 2.7614237 2.2385763 5 5 5s5-2.2385763 5-5" fill="#7facfa"/></g><g id="color" fill="#fff" transform="translate(1 13)"><path id="Shape" d="m4 46h3c-2.209139 0-4-1.790861-4-4v-38c0-2.209139 1.790861-4 4-4h-3c-2.209139 0-4 1.790861-4 4v38c0 2.209139 1.790861 4 4 4z"/></g><g id="Icons"><path id="Rectangle-path" d="m0 47h2v8h-2z" fill="#fff"/><g fill="#428dff"><path id="Shape" d="m1.02 52c-.55228473.0027614-1.00223852-.4427153-1.00499994-.995-.00276143-.5522847.44271521-1.0022385.99499994-1.005h.01c.55228475 0 1 .4477153 1 1s-.44771525 1-1 1z"/><circle id="Oval" cx="5" cy="17" r="1"/><circle id="Oval" cx="9" cy="17" r="1"/><circle id="Oval" cx="13" cy="17" r="1"/><path id="Shape" d="m6 47h2c.55228475 0 1-.4477153 1-1s-.44771525-1-1-1h-2c-.55228475 0-1 .4477153-1 1s.44771525 1 1 1z"/><path id="Shape" d="m27 45h-15c-.5522847 0-1 .4477153-1 1s.4477153 1 1 1h15c.5522847 0 1-.4477153 1-1s-.4477153-1-1-1z"/><path id="Shape" d="m6 55h2c.55228475 0 1-.4477153 1-1s-.44771525-1-1-1h-2c-.55228475 0-1 .4477153-1 1s.44771525 1 1 1z"/><path id="Shape" d="m27 53h-15c-.5522847 0-1 .4477153-1 1s.4477153 1 1 1h15c.5522847 0 1-.4477153 1-1s-.4477153-1-1-1z"/><path id="Shape" d="m27 49h-2c-.5522847 0-1 .4477153-1 1s.4477153 1 1 1h2c.5522847 0 1-.4477153 1-1s-.4477153-1-1-1z"/><path id="Shape" d="m6 51h15c.5522847 0 1-.4477153 1-1s-.4477153-1-1-1h-15c-.55228475 0-1 .4477153-1 1s.44771525 1 1 1z"/><path id="Shape" d="m58 29.184v-12.184c-.0048349-5.246646-3.1588018-9.97759628-8-12 0-2.76142375-2.2385763-5-5-5s-5 2.23857625-5 5c-3.1609135 1.32523215-5.6747679 3.83908652-7 7h-28c-2.76005315.0033061-4.99669388 2.2399468-5 5v30c0 .5522847.44771525 1 1 1s1-.4477153 1-1v-25h30v7.184c-1.1943509.4222546-1.9947486 1.5492146-2 2.816v2c0 1.1045695.8954305 2 2 2h7.09c.4853307 2.8857455 2.9837271 4.9990438 5.91 4.9990438s5.4246693-2.1132983 5.91-4.9990438h3.09v19c0 1.6568542-1.3431458 3-3 3h-46c-1.65685425 0-3-1.3431458-3-3 0-.5522847-.44771525-1-1-1s-1 .4477153-1 1c.00330612 2.7600532 2.23994685 4.9966939 5 5h46c2.7600532-.0033061 4.9966939-2.2399468 5-5v-19h2c1.1045695 0 2-.8954305 2-2v-2c-.0052514-1.2667854-.8056491-2.3937454-2-2.816zm-13-27.184c1.4021506.00195143 2.6159301.97488514 2.923 2.343-1.9218328-.45734104-3.9241672-.45734104-5.846 0 .3070699-1.36811486 1.5208494-2.34104857 2.923-2.343zm0 4c6.0721626.0071635 10.9928365 4.9278374 11 11v12h-22v-12c.0071635-6.0721626 4.9278374-10.9928365 11-11zm-43 14v-3c0-1.6568542 1.34314575-3 3-3h27.363c-.2375608.9824253-.3593886 1.9892668-.363 3v3zm43 19c-1.8184116-.0068148-3.4034067-1.2393149-3.858-3h7.716c-.4545933 1.7606851-2.0395884 2.9931852-3.858 3zm-13-5v-2c0-.5522847.4477153-1 1-1h24c.5522847 0 1 .4477153 1 1v2z"/></g></g></g></g></svg>