<svg height="512" viewBox="0 0 60 60" width="512" xmlns="http://www.w3.org/2000/svg"><g id="Page-1" fill="none" fill-rule="evenodd"><g id="009---message-alert" fill-rule="nonzero"><g id="color" transform="translate(1 1)"><path id="Shape" d="m25.32 38.5-24.51 17.91c-.52491626-.6938622-.80928709-1.5399532-.81-2.41v-34z" fill="#02a9f4"/><path id="Shape" d="m57.19 56.41c-.7553873 1.000646-1.9362449 1.5892239-3.19 1.59h-50c-1.25375507-.0007761-2.43461267-.589354-3.19-1.59l24.51-17.91.84.61c1.709537 1.1798096 3.970463 1.1798096 5.68 0l.84-.61z" fill="#00bcd4"/><path id="Shape" d="m58 20v34c-.0007129.8700468-.2850837 1.7161378-.81 2.41l-24.51-17.91z" fill="#02a9f4"/><path id="Shape" d="m55 22.19v31.81c-.0008378.252084-.0276461.503411-.08.75l2.27 1.66c.5249163-.6938622.8092871-1.5399532.81-2.41v-34z" fill="#0377bc"/><path id="Shape" d="m44.5 20c.8934427-3.5029007.5835131-7.2044467-.88-10.51l14.38 10.51z" fill="#3f51b5"/><path id="Shape" d="m13 16c-.0026352 1.3490807.1653644 2.6930782.5 4h-13.5l14.38-10.51c-.9143302 2.0482739-1.3846425 4.2669208-1.38 6.51z" fill="#3f51b5"/><path id="Shape" d="m58 20-25.32 18.5-.84.61c-1.709537 1.1798096-3.970463 1.1798096-5.68 0l-.84-.61-25.32-18.5h13.5c1.8126792 7.0796593 8.1919646 12.031373 15.5 12.031373s13.6873208-4.9517137 15.5-12.031373z" fill="#283593"/><path id="Shape" d="m4 39c-.55228475 0-1-.4477153-1-1v-10c0-.5522847.44771525-1 1-1s1 .4477153 1 1v10c0 .5522847-.44771525 1-1 1z" fill="#f5f5f5"/><path id="Shape" d="m4 46c-.55228475 0-1-.4477153-1-1v-3c0-.5522847.44771525-1 1-1s1 .4477153 1 1v3c0 .5522847-.44771525 1-1 1z" fill="#f5f5f5"/><path id="Shape" d="m43.62 9.49c-2.5737764-5.76476963-8.2967684-9.47712487-14.61-9.47712487s-12.0362236 3.71235524-14.61 9.47712487c-2.9835574 6.7102644-1.0161058 14.5900202 4.7715312 19.1102548 5.7876371 4.5202346 13.9093005 4.5202346 19.6969376 0 5.787637-4.5202346 7.7550886-12.3999904 4.7715312-19.1102548z" fill="#e91e63"/><path id="Shape" d="m37 23h-5.18c.1211451.3193835.1821716.6584195.18 1 0 1.6568542-1.3431458 3-3 3s-3-1.3431458-3-3c-.0021716-.3415805.0588549-.6806165.18-1h-5.18v-2c0-1.1045695.8954305-2 2-2v-6c.0037069-2.7021501 1.8132194-5.06843568 4.42-5.78-.275095-.34683576-.4232961-.77732465-.42-1.22 0-1.10456947.8954305-1.99999992 2-1.99999992s2 .89543045 2 1.99999992c.0032961.44267535-.144905.87316424-.42 1.22 1.0082693.26660967 1.926748.79836049 2.66 1.54 1.1311821 1.1203547 1.7652631 2.6479133 1.76 4.24v6c1.1045695 0 2 .8954305 2 2z" fill="#e91e63"/><path id="Shape" d="m43.62 9.49c-2.5714037-5.77311457-8.3001135-9.49168197-14.62-9.49-.5010337.00119028-1.0016819.02789151-1.5.08 5.7476302.54179096 10.7576797 4.13786766 13.11 9.41 2.0964968 4.706051 1.7986479 10.1337022-.8002097 14.5820901-2.5988576 4.4483878-7.1807281 7.3732082-12.3097903 7.8579099.49 0 1 .07 1.5.07 5.4191619.0014424 10.4707403-2.740283 13.4224881-7.2850055s3.4024337-10.2746776 1.1975119-15.2249945z" fill="#ad1457"/><path id="Shape" d="m32 24c0 1.6568542-1.3431458 3-3 3s-3-1.3431458-3-3c-.0021716-.3415805.0588549-.6806165.18-1h5.64c.1211451.3193835.1821716.6584195.18 1z" fill="#ff9801"/><path id="Shape" d="m31 6c.0032961.44267535-.144905.87316424-.42 1.22-1.0328847-.29352518-2.1271153-.29352518-3.16 0-.275095-.34683576-.4232961-.77732465-.42-1.22 0-1.10456947.8954305-1.99999992 2-1.99999992s2 .89543045 2 1.99999992z" fill="#ff9801"/><path id="Shape" d="m35 13 .0000325 6h-12.0000325v-6c.0037069-2.7021501 1.8132194-5.06843568 4.42-5.78 1.0328847-.29352518 2.1271153-.29352518 3.16 0 1.0082693.26660967 1.926748.79836049 2.66 1.54 1.1311821 1.1203547 1.7652631 2.6479133 1.76 4.24z" fill="#ffeb3a"/><path id="Shape" d="m33.24 8.76c-.733252-.74163951-1.6517307-1.27339033-2.66-1.54-.5131164-.15000818-1.0454218-.22412664-1.58-.22-.5066588-.00017747-1.0110876.0670797-1.5.2h.08c1.0082693.26660967 1.926748.79836049 2.66 1.54 1.1361477 1.12521989 1.7706436 2.6609884 1.76 4.26v6h3.0000325l-.0000325-6c.0052631-1.5920867-.6288179-3.1196453-1.76-4.24z" fill="#fdd834"/><path id="Shape" d="m37 21v2h-16v-2c0-1.1045695.8954305-2 2-2h12c1.1045695 0 2 .8954305 2 2z" fill="#ffdc00"/></g><g id="Icons" fill="#000"><path id="Shape" d="m60 20.81s0-.08 0-.12c-.015719-.0483874-.0358016-.0952466-.06-.14 0 0 0-.07-.05-.1s0 0 0 0l-.06-.05-.11-.11v-.06l-14.34-10.42c-2.8025147-5.9619342-8.7972274-9.76800339-15.385-9.76800339s-12.5824853 3.80606919-15.385 9.76800339l-14.2 10.38v.06l-.11.11-.06.05-.05.1c-.02419845.0447534-.04428098.0916126-.06.14-.0045429.039871-.0045429.080129 0 .12-.00491646.0398489-.00491646.0801511 0 .12-.06321582.0030668-.11651217.0481637-.13.11v34c.01284005 1.0612978.36307116 2.0909773 1 2.94v.06s.06 0 .08.07c.94155838 1.2104319 2.38650368 1.9218463 3.92 1.93h50c1.5334963-.0081537 2.9784416-.7195681 3.92-1.93 0 0 .08-.07.08-.07s0 0 0-.06c.6369288-.8490227.9871599-1.8787022 1-2.94v-34s0-.05 0-.07c-.0049165-.0398489-.0049165-.0801511 0-.12zm-2 34.19c-.0018354.3134274-.0559099.624356-.16.92l-22.47-16.42 22.63-16.5zm-55.84.92c-.10409006-.295644-.1581646-.6065726-.16-.92v-32l22.63 16.5zm1.9-33.92h9.69c2.1929275 7.13594 8.7847089 12.0062539 16.25 12.0062539s14.0570725-4.8703139 16.25-12.0062539h9.69l-23.67 17.29c-1.362274.9328485-3.157726.9328485-4.52 0zm51.88-2h-9.22c.1797529-.9900432.2734362-1.9937925.28-3-.0051757-1.3033256-.1595135-2.601776-.46-3.87zm-25.94-18c8.2842712 0 15 6.71572875 15 15 0 8.2842712-6.7157288 15-15 15s-15-6.7157288-15-15c0-8.28427125 6.7157288-15 15-15zm-16.72 18h-9.22l9.4-6.86c-.3011186 1.2647214-.4554704 2.5599338-.46 3.86.0065638 1.0062075.1002471 2.0099568.28 3zm-8.28 38c-.5792447-.0025451-1.14536618-.1727289-1.63-.49l23-16.77.27.19c.9858729.6885501 2.1575121 1.0616614 3.36 1.07 1.2285259-.0003324 2.4280347-.3734355 3.44-1.07l.25-.18 23 16.77c-.5028129.325059-1.0913895.4922287-1.69.48z"/><path id="Shape" d="m22 25h4c0 2.209139 1.790861 4 4 4s4-1.790861 4-4h4c.5522847 0 1-.4477153 1-1v-2c-.0035644-1.2682549-.8042713-2.3972517-2-2.82v-5.18c-.0046399-2.7313946-1.5975914-5.21062056-4.08-6.35.0518204-.21282437.0786681-.43096166.08-.65 0-1.65685425-1.3431458-3-3-3s-3 1.34314575-3 3c.0013319.21903834.0281796.43717563.08.65-2.4824086 1.13937944-4.0753601 3.6186054-4.08 6.35v5.18c-1.1957287.4227483-1.9964356 1.5517451-2 2.82v2c0 .5522847.4477153 1 1 1zm8 2c-1.1045695 0-2-.8954305-2-2h4c0 1.1045695-.8954305 2-2 2zm-1-20c0-.55228475.4477153-1 1-1s1 .44771525 1 1v.08c-.6622302-.10876874-1.3377698-.10876874-2 0zm-4 7c0-2.7614237 2.2385763-5 5-5s5 2.2385763 5 5v5h-10zm-2 8c0-.5522847.4477153-1 1-1h12c.5522847 0 1 .4477153 1 1v1h-14z"/></g></g></g></svg>