<svg height="512" viewBox="0 0 60 60" width="512" xmlns="http://www.w3.org/2000/svg"><g id="Page-1" fill="none" fill-rule="evenodd"><g id="009---message-alert" fill-rule="nonzero" transform="translate(-1 -1)"><g id="color_copy" transform="translate(2 2)"><g fill="#e8edfc"><path id="Shape" d="m25.32 38.5-24.51 17.91c-.52662627-.6929578-.81119622-1.5396413-.81-2.41l-.00000376-34z"/><path id="Shape" d="m57.19 56.41c-.7535327 1.0028755-1.9355811 1.592047-3.19 1.59h-50c-1.25441889.002047-2.43646727-.5871245-3.19-1.59l24.51-17.91.84.61c1.7063673 1.1899396 3.9736327 1.1899396 5.68 0l.84-.61z"/><path id="Shape" d="m58.0000038 20-.0000038 34c.0011962.8703587-.2833737 1.7170422-.81 2.41l-24.51-17.91z"/></g><path id="Shape" d="m55 22.192v31.808c-.0020216.2529078-.0281397.5050476-.078.753l2.268 1.657c.5266263-.6929578.8111962-1.5396413.81-2.41l.0000038-34z" fill="#cad9fc"/><path id="Shape" d="m44.5 20c.8933643-3.5029072.5834368-7.2044272-.88-10.51l14.38 10.51z" fill="#cad9fc"/><path id="Shape" d="m13 16c-.0026352 1.3490807.1653644 2.6930782.5 4h-13.5l14.38-10.51c-.9143013 2.0482833-1.3846123 4.266924-1.38 6.51z" fill="#cad9fc"/><path id="Shape" d="m58 20-25.32 18.5-.84.61c-1.7063673 1.1899396-3.9736327 1.1899396-5.68 0l-.84-.61-25.32-18.5h13.5c1.8273824 7.0656455 8.201872 12.0012471 15.5 12.0012471s13.6726176-4.9356016 15.5-12.0012471z" fill="#a4c2f7"/><path id="Shape" d="m4 39c-.55228475 0-1-.4477153-1-1v-10c0-.5522847.44771525-1 1-1s1 .4477153 1 1v10c0 .5522847-.44771525 1-1 1z" fill="#428dff"/><path id="Shape" d="m4 46c-.55228475 0-1-.4477153-1-1v-3c0-.5522847.44771525-1 1-1s1 .4477153 1 1v3c0 .5522847-.44771525 1-1 1z" fill="#428dff"/><path id="Shape" d="m43.62 9.49h-.01c-2.5680286-5.77145649-8.2930006-9.49023228-14.61-9.49023228s-12.0419714 3.71877579-14.61 9.49023228h-.01c-2.9835574 6.7102644-1.0161058 14.5900202 4.7715312 19.1102548 5.7876371 4.5202346 13.9093005 4.5202346 19.6969376 0 5.787637-4.5202346 7.7550886-12.3999904 4.7715312-19.1102548z" fill="#e8edfc"/><path id="Shape" d="m37 23h-5.18c.1211006.3193958.1821256.6584234.18 1 0 1.6568542-1.3431458 3-3 3s-3-1.3431458-3-3c-.0021256-.3415766.0588994-.6806042.18-1h-5.18v-2c.0032948-1.1032019.8967981-1.9967052 2-2v-6c.0012998-2.7029662 1.8118011-5.07054488 4.42-5.78-.275095-.34683576-.4232961-.77732465-.42-1.22 0-1.10456947.8954305-1.99999992 2-1.99999992s2 .89543045 2 1.99999992c.0032961.44267535-.144905.87316424-.42 1.22 1.0081756.26683658 1.9265979.79855476 2.66 1.54 1.1308021 1.12061008 1.7648139 2.6480021 1.76 4.24v6c1.1032019.0032948 1.9967052.8967981 2 2z" fill="#e8edfc"/><path id="Shape" d="m43.62 9.49h-.01c-2.5650409-5.77397515-8.2919142-9.49389488-14.61-9.49-.507 0-1 .031-1.5.078 5.7501503.53663921 10.7628167 4.13535897 13.11 9.412h.01c2.0999559 4.7068915 1.802322 10.1374176-.7994571 14.5866184-2.601779 4.4492009-7.1886564 7.3714869-12.3205429 7.8493816.494.046.994.074 1.5.074 5.4175005-.0027265 10.466039-2.7453169 13.4168821-7.2886465 2.9508432-4.5433296 3.4035554-10.2708592 1.2031179-15.2213535z" fill="#cad9fc"/><path id="Shape" d="m32 24c0 1.6568542-1.3431458 3-3 3s-3-1.3431458-3-3c-.0021256-.3415766.0588994-.6806042.18-1h5.64c.1211006.3193958.1821256.6584234.18 1z" fill="#e8edfc"/><path id="Shape" d="m31 6c.0032961.44267535-.144905.87316424-.42 1.22-1.0329141-.29331416-2.1270859-.29331416-3.16 0-.275095-.34683576-.4232961-.77732465-.42-1.22 0-1.10456947.8954305-1.99999992 2-1.99999992s2 .89543045 2 1.99999992z" fill="#e8edfc"/><path id="Shape" d="m35 13 .0000272 6h-12.0000272v-6c.0012998-2.7029662 1.8118011-5.07054488 4.42-5.78 1.0329141-.29331416 2.1270859-.29331416 3.16 0 1.0081756.26683658 1.9265979.79855476 2.66 1.54 1.1308021 1.12061008 1.7648139 2.6480021 1.76 4.24z" fill="#e8edfc"/><path id="Shape" d="m33.24 8.76c-.7334021-.74144524-1.6518244-1.27316342-2.66-1.54-1.0054894-.28841242-2.0708499-.29533034-3.08-.02.026.007.054.009.08.017 1.0081756.26683658 1.9265979.79855476 2.66 1.54 1.1315447 1.12134077 1.7656185 2.649963 1.76 4.243v6h3.0000272l-.0000272-6c.0048139-1.5919979-.6291979-3.11938992-1.76-4.24z" fill="#cad9fc"/><path id="Shape" d="m37 21v2h-16v-2c.0032948-1.1032019.8967981-1.9967052 2-2h12c1.1032019.0032948 1.9967052.8967981 2 2z" fill="#e8edfc"/></g><g id="color" fill="#fff" transform="translate(2 22)"><path id="Shape" d="m0 0v34c0 2.209139 1.790861 4 4 4h3c-2.209139 0-4-1.790861-4-4v-34z"/></g><g id="Icons"><path id="Rectangle-path" d="m1 48h2v8h-2z" fill="#fff"/><g fill="#428dff"><path id="Shape" d="m2.02 53c-.55228473.0027614-1.00223852-.4427153-1.00499994-.995-.00276143-.5522847.44271521-1.0022385.99499994-1.005h.01c.55228475 0 1 .4477153 1 1s-.44771525 1-1 1z"/><path id="Shape" d="m60.59 21.193-14.208-10.384c-2.7840647-5.98497874-8.7868578-9.81173501-15.3876898-9.80958972-6.6008319.00214529-12.6011364 3.83280259-15.3813102 9.81958972l-14.203 10.373c-.28497977.1640314-.44589353.4811492-.41.808v26c0 .5522847.44771525 1 1 1s1-.4477153 1-1v-24.031l22.627 16.531-22.469 16.417c-.10058511-.2954499-.15390784-.6049242-.158-.917 0-.5522847-.44771525-1-1-1s-1 .4477153-1 1c.02709676 2.7501217 2.24987829 4.9729032 5 5h50c2.7501217-.0270968 4.9729032-2.2498783 5-5v-34c-.0169124-.3147379-.1657776-.607748-.41-.807zm-1.59 34.807c-.0040922.3120758-.0574149.6215501-.158.917l-22.469-16.417 22.627-16.531zm-53.936-33h9.689c2.1961004 7.1310199 8.7854786 11.9965021 16.247 11.9965021s14.0508996-4.8654822 16.247-11.9965021h9.689l-23.667 17.289c-1.358139.9387072-3.1540696.9442723-4.518.014zm51.874-2h-9.219c.4278862-2.2765162.3665279-4.6180181-.18-6.869zm-25.938-18c8.2842712 0 15 6.71572875 15 15 0 8.2842712-6.7157288 15-15 15s-15-6.7157288-15-15c.0093685-8.28038757 6.7196124-14.99063148 15-15zm-16.719 18h-9.216l9.394-6.862c-.5446808 2.2489086-.6053535 4.5878769-.178 6.862zm-8.281 38c-.58034452-.0004564-1.14791851-.1704158-1.633-.489l22.956-16.774.268.2c.9990958.6908994 2.185285 1.0603624 3.4 1.059 1.2279919.0003388 2.4267976-.3743752 3.436-1.074l.248-.181 22.958 16.77c-.4850815.3185842-1.0526555.4885436-1.633.489z"/><path id="Shape" d="m23 26h4c0 2.209139 1.790861 4 4 4s4-1.790861 4-4h4c.5522847 0 1-.4477153 1-1v-2c-.0052514-1.2667854-.8056491-2.3937454-2-2.816v-5.184c-.0031107-2.732017-1.5953871-5.21257906-4.078-6.353.2802069-1.20469622-.2076506-2.45787802-1.2286269-3.15603002-1.0209764-.69815201-2.3657698-.69815201-3.3867462 0-1.0209763.698152-1.5088338 1.9513338-1.2286269 3.15603002-2.4826129 1.14042094-4.0748893 3.620983-4.078 6.353v5.184c-1.1943509.4222546-1.9947486 1.5492146-2 2.816v2c0 .5522847.4477153 1 1 1zm8 2c-1.1045695 0-2-.8954305-2-2h4c0 1.1045695-.8954305 2-2 2zm-1-20c0-.55228475.4477153-1 1-1s1 .44771525 1 1c0 .028-.01.051-.012.078-.6545662-.10393871-1.3214338-.10393871-1.976 0-.002-.027-.012-.05-.012-.078zm-4 7c0-2.7614237 2.2385763-5 5-5s5 2.2385763 5 5v5h-10zm-2 8c0-.5522847.4477153-1 1-1h12c.5522847 0 1 .4477153 1 1v1h-14z"/></g></g></g></g></svg>